# xmcd
#
# Track frame offsets: 
#        150
#        20751
#        37816
#        55508
#        74948
#        88530
#        107504
#        125115
#        144781
#        164755
#        175262
#        203137
#        223091
#        241564
#        265791
#        286459
#        305286
#        324380
#        338592
#
# Disc length: 4752 seconds
#
# Revision: 1
# Processed by: cddbd v1.5.2PL0 Copyright (c) Steve Scherf et al.
# Submitted via: ExactAudioCopy v1.3
#
DISCID=11128e13
DTITLE=Eroc - Changing Skies
DYEAR=2006
DGENRE=Rock
TTITLE0=Changing Skies
TTITLE1=Zauberwald
TTITLE2=Wanderzirkus
TTITLE3=Back to the Mountains
TTITLE4=Seitenwind
TTITLE5=Space Shuffle
TTITLE6=Presses Rat and Warthog
TTITLE7=Nachtfahrt
TTITLE8=Happy Burstday
TTITLE9=Ich hasse dich
TTITLE10=Greenhouse Effect
TTITLE11=Remscheid
TTITLE12=Danger Keep Out
TTITLE13=Burstday in Peuscherswerth
TTITLE14=Changing Skies (Remix)
TTITLE15=Space Shuffle (Remix)
TTITLE16=Nachtfahrt (Remix)
TTITLE17=Der fröhliche Wecker
TTITLE18=Teenage Love '96
EXTD=YEAR: 2006
EXTT0=
EXTT1=
EXTT2=
EXTT3=
EXTT4=
EXTT5=
EXTT6=
EXTT7=
EXTT8=
EXTT9=
EXTT10=
EXTT11=
EXTT12=
EXTT13=
EXTT14=
EXTT15=
EXTT16=
EXTT17=
EXTT18=
PLAYORDER=
